# xmcd CD database file
#
# Track frame offsets:
#	155
#	12379
#	25354
#	38271
#	51787
#	65191
#	80388
#	93553
#	105648
#	120347
#	135033
#	147835
#	160049
#	173916
#	186963
#	199994
#	212574
#	227346
#
# Disc length: 3223 seconds
#
# Revision: 1
# Processed by: cddbd v1.5.2PL0 Copyright (c) Steve Scherf et al.
# Submitted via: CDex 1.51
#
DISCID=e60c9512
DTITLE=Bumble Bee Slim - From Georgia To Chicago 1931-1937 Disc 2
DYEAR=1998
DGENRE=Blues
TTITLE0=No More Biscuits Rolling Here
TTITLE1=Meet Me In The Bottom
TTITLE2=When The Music Sounds Good
TTITLE3=New Policy Dream Blues
TTITLE4=Any Time At Night
TTITLE5=I'se Gonna Break'em Down
TTITLE6=Please Baby
TTITLE7=The Jive Of Mine
TTITLE8=Slave Man Blues
TTITLE9=My Big Moments
TTITLE10=Meet Me At The Landing
TTITLE11=Rough Treatment
TTITLE12=Rising River Blues
TTITLE13=She Never
TTITLE14=12 O'clock Southern Train
TTITLE15=You Sure Look Good To Me
TTITLE16=Woman For Every Man
TTITLE17=Going Back To Florida
EXTD=YEAR: 1998
EXTT0=
EXTT1=
EXTT2=
EXTT3=
EXTT4=
EXTT5=
EXTT6=
EXTT7=
EXTT8=
EXTT9=
EXTT10=
EXTT11=
EXTT12=
EXTT13=
EXTT14=
EXTT15=
EXTT16=
EXTT17=
PLAYORDER=
